<mxfile host="65bd71144e">
    <diagram id="yKn6JYMT4n9VjjqyK_aS" name="Page-1">
        <mxGraphModel dx="744" dy="1711" grid="0" gridSize="10" guides="1" tooltips="1" connect="1" arrows="1" fold="1" page="1" pageScale="1" pageWidth="850" pageHeight="1100" background="#000000" math="0" shadow="0">
            <root>
                <mxCell id="0"/>
                <mxCell id="1" parent="0"/>
                <mxCell id="61" value="USER" style="swimlane;fontStyle=1;align=center;verticalAlign=top;childLayout=stackLayout;horizontal=1;startSize=26;horizontalStack=0;resizeParent=1;resizeParentMax=0;resizeLast=0;collapsible=1;marginBottom=0;rounded=1;shadow=1;glass=0;strokeColor=#0f0f0f;strokeWidth=2;fontFamily=Lucida Console;fontSize=15;fillColor=#1ba1e2;swimlaneFillColor=#FFFFFF;fontColor=#ffffff;gradientColor=none;gradientDirection=north;perimeterSpacing=2;" parent="1" vertex="1">
                    <mxGeometry x="165" y="-787" width="160" height="178" as="geometry"/>
                </mxCell>
                <mxCell id="62" value="Email&#10;Password&#10;ID&#10;Account Type" style="text;strokeColor=none;fillColor=none;align=left;verticalAlign=top;spacingLeft=4;spacingRight=4;overflow=hidden;rotatable=0;points=[[0,0.5],[1,0.5]];portConstraint=eastwest;rounded=1;shadow=1;glass=0;strokeWidth=3;fontFamily=Lucida Console;fontSize=15;fontColor=#333333;startSize=26;" parent="61" vertex="1">
                    <mxGeometry y="26" width="160" height="118" as="geometry"/>
                </mxCell>
                <mxCell id="63" value="" style="line;strokeWidth=1;fillColor=none;align=left;verticalAlign=middle;spacingTop=-1;spacingLeft=3;spacingRight=3;rotatable=0;labelPosition=right;points=[];portConstraint=eastwest;strokeColor=inherit;rounded=1;shadow=1;glass=0;fontFamily=Lucida Console;fontSize=15;fontColor=#333333;startSize=26;" parent="61" vertex="1">
                    <mxGeometry y="144" width="160" height="8" as="geometry"/>
                </mxCell>
                <mxCell id="64" value="ToJson():Object" style="text;strokeColor=none;fillColor=none;align=left;verticalAlign=top;spacingLeft=4;spacingRight=4;overflow=hidden;rotatable=0;points=[[0,0.5],[1,0.5]];portConstraint=eastwest;rounded=1;shadow=1;glass=0;strokeWidth=3;fontFamily=Lucida Console;fontSize=15;fontColor=#333333;startSize=26;" parent="61" vertex="1">
                    <mxGeometry y="152" width="160" height="26" as="geometry"/>
                </mxCell>
                <mxCell id="65" value="UserManger" style="swimlane;fontStyle=1;align=center;verticalAlign=top;childLayout=stackLayout;horizontal=1;startSize=26;horizontalStack=0;resizeParent=1;resizeParentMax=0;resizeLast=0;collapsible=1;marginBottom=0;rounded=1;shadow=1;glass=0;strokeColor=#0f0f0f;strokeWidth=2;fontFamily=Lucida Console;fontSize=15;fillColor=#1ba1e2;swimlaneFillColor=#FFFFFF;fontColor=#ffffff;gradientColor=none;gradientDirection=north;perimeterSpacing=2;" vertex="1" parent="1">
                    <mxGeometry x="419" y="-821" width="276" height="239" as="geometry"/>
                </mxCell>
                <mxCell id="66" value="ArrofUsers" style="text;strokeColor=none;fillColor=none;align=left;verticalAlign=top;spacingLeft=4;spacingRight=4;overflow=hidden;rotatable=0;points=[[0,0.5],[1,0.5]];portConstraint=eastwest;rounded=1;shadow=1;glass=0;strokeWidth=3;fontFamily=Lucida Console;fontSize=15;fontColor=#333333;startSize=26;" vertex="1" parent="65">
                    <mxGeometry y="26" width="276" height="32" as="geometry"/>
                </mxCell>
                <mxCell id="67" value="" style="line;strokeWidth=1;fillColor=none;align=left;verticalAlign=middle;spacingTop=-1;spacingLeft=3;spacingRight=3;rotatable=0;labelPosition=right;points=[];portConstraint=eastwest;strokeColor=inherit;rounded=1;shadow=1;glass=0;fontFamily=Lucida Console;fontSize=15;fontColor=#333333;startSize=26;" vertex="1" parent="65">
                    <mxGeometry y="58" width="276" height="8" as="geometry"/>
                </mxCell>
                <mxCell id="68" value="AddUser()&#10;DeleteUser()&#10;StoreUsers()&#10;RetriveUsers()&#10;searchUsersbyEmail()&#10;PrintUsers()&#10;" style="text;strokeColor=none;fillColor=none;align=left;verticalAlign=top;spacingLeft=4;spacingRight=4;overflow=hidden;rotatable=0;points=[[0,0.5],[1,0.5]];portConstraint=eastwest;rounded=1;shadow=1;glass=0;strokeWidth=2;fontFamily=Lucida Console;fontSize=15;fontColor=#333333;startSize=26;" vertex="1" parent="65">
                    <mxGeometry y="66" width="276" height="173" as="geometry"/>
                </mxCell>
                <mxCell id="77" value="&lt;br&gt;User&lt;br&gt;" style="shape=umlActor;verticalLabelPosition=bottom;verticalAlign=top;html=1;strokeWidth=2;movable=1;resizable=1;rotatable=1;deletable=1;editable=1;connectable=1;" vertex="1" parent="1">
                    <mxGeometry x="198" y="-898" width="30" height="60" as="geometry"/>
                </mxCell>
            </root>
        </mxGraphModel>
    </diagram>
</mxfile>